<?xml version="1.0" encoding="utf-8"?>
<!-- Generator: Adobe Illustrator 21.0.0, SVG Export Plug-In . SVG Version: 6.00 Build 0)  -->
<svg version="1.1" id="Layer_1" xmlns="http://www.w3.org/2000/svg" xmlns:xlink="http://www.w3.org/1999/xlink" x="0px" y="0px"
	 viewBox="0 0 512 512" style="enable-background:new 0 0 512 512;" xml:space="preserve" fill="#cfd8dc">
<path d="M446.7,235.1c-1.4-5.8-4-11.4-7.7-16.4c-3.7-4.9-8.6-9.1-14.2-12.3c-7.7-4.4-16.3-6.5-24.7-6.5c-8.2,0-16.4,2-23.7,6.2
	c-3.7,2.1-7.1,4.7-10.1,7.8c-3,3.1-5.7,6.7-7.8,10.7c-0.3,0.6-0.4,0.7-0.6,1.3l-5.8,14V96.1c0-6.6-1.3-12.9-3.8-18.7
	c-3.7-8.6-9.7-15.9-17.4-21.1c-3.8-2.6-8.1-4.6-12.6-6c-4.5-1.4-9.3-2.2-14.3-2.2c-5.6,0-10.9,0.9-15.9,2.7v-2.7
	c0-6.6-1.3-12.9-3.8-18.7c-3.7-8.6-9.7-15.9-17.4-21.1c-3.8-2.6-8.1-4.6-12.6-6C249.7,0.8,244.9,0,240,0c-6.6,0-12.9,1.3-18.7,3.8
	c-8.6,3.7-15.9,9.7-21.1,17.4c-2.6,3.8-4.6,8.1-6,12.6c-0.2,0.6-0.3,1.1-0.5,1.7c-1.1-0.4-2.3-0.8-3.4-1.2
	c-4.5-1.4-9.3-2.2-14.3-2.2c-6.6,0-12.9,1.3-18.7,3.8c-8.6,3.7-15.9,9.7-21.1,17.4c-2.6,3.8-4.6,8.1-6,12.6
	c-1.4,4.5-2.2,9.3-2.2,14.3v18.6c-0.6-0.2-1.1-0.4-1.7-0.6C121.8,96.8,117,96,112,96c-6.6,0-12.9,1.3-18.7,3.8
	c-8.6,3.7-15.9,9.7-21.1,17.4c-2.6,3.8-4.6,8.1-6,12.6s-2.2,9.3-2.2,14.3v176c0,0,0,0,0,0c0,30.8,4.2,58.1,12.2,82
	c6,17.9,14.2,33.9,24.3,47.7c7.6,10.3,16.2,19.5,25.8,27.3c14.4,11.7,30.8,20.5,48.6,26.3s37,8.6,57.1,8.6c23.2,0,43.4-2.6,61.1-7.5
	c13.3-3.7,25.1-8.7,35.6-14.8c15.7-9.2,28.4-20.8,38.4-33.8c10.1-13,17.6-27.2,23.7-41.7l0.3-0.7l52.7-144c2.7-7.4,4.3-15,4.3-22.7
	C448.1,242.9,447.7,238.9,446.7,235.1z M413.8,258.5l-52.5,143.3l0,0c-4.7,11.3-10.2,21.7-16.9,31c-5,7-10.7,13.3-17.3,18.9
	c-9.9,8.4-21.9,15.4-37.3,20.3c-15.4,5-34.3,7.9-57.7,7.9c-20.2,0-38.7-3.4-54.9-9.9c-12.2-4.9-23.2-11.5-33-19.9
	c-7.3-6.3-13.9-13.7-19.8-22.1c-8.8-12.7-15.8-27.9-20.7-45.9s-7.6-38.7-7.6-62.2c0-0.6,0-1.2-0.1-1.7V144c0-2.3,0.4-4.3,1.3-6.2
	c1.2-2.9,3.3-5.3,5.8-7.1c1.3-0.9,2.7-1.5,4.2-2s3.1-0.7,4.8-0.7c2.3,0,4.3,0.4,6.2,1.3c2.9,1.2,5.3,3.3,7.1,5.8
	c0.9,1.3,1.5,2.7,2,4.2c0.3,0.9,0.5,1.9,0.6,2.9v114c0,8.8,7.2,16,16,16c2.8,0,5.4-0.7,7.6-2c5-2.7,8.5-8,8.5-14.1V144
	c0-1,0-2-0.1-3V80c0-2.3,0.4-4.3,1.3-6.2c1.2-2.9,3.3-5.3,5.8-7.1c1.3-0.9,2.7-1.5,4.2-2s3.1-0.7,4.8-0.7c2.3,0,4.3,0.4,6.2,1.3
	c2.9,1.2,5.3,3.3,7.1,5.8c0.9,1.3,1.5,2.7,2,4.2c0.3,0.9,0.5,1.9,0.6,2.9v161.9c0,8.8,7.2,16,16,16c0,0,0,0,0,0c0,0,0,0,0.1,0
	c8.8,0,16-7.2,16-16v-160c0-1,0-2-0.1-3V48c0-2.3,0.4-4.3,1.3-6.2c1.2-2.9,3.3-5.3,5.8-7.1c1.3-0.9,2.7-1.5,4.2-2s3.1-0.7,4.8-0.7
	c2.3,0,4.3,0.4,6.2,1.3c2.9,1.2,5.3,3.3,7.1,5.8c0.9,1.3,1.5,2.7,2,4.2s0.7,3.1,0.7,4.8v45.2c-0.1,1-0.1,1.9-0.1,2.9v145
	c0,8.8,7.2,16,16,16c8.4-0.2,15.3-6.7,15.9-14.9c0.1-0.7,0.2-1.4,0.2-2.2V94.2c0.2-1.6,0.5-3,1.2-4.4c1.2-2.9,3.3-5.3,5.8-7.1
	c1.3-0.9,2.7-1.5,4.2-2s3.1-0.7,4.8-0.7c2.3,0,4.3,0.4,6.2,1.3c2.9,1.2,5.3,3.3,7.1,5.8c0.9,1.3,1.5,2.7,2,4.2s0.7,3.1,0.7,4.8v224
	c0,8.8,7.2,16,16,16c6.8,0,12.6-4.3,14.9-10.3l35.8-86.3c0.7-1.2,1.4-2.2,2.2-3.1c1.3-1.4,3-2.4,4.8-3.2c1.9-0.8,4-1.2,6.2-1.2
	c3,0,6.1,0.8,8.9,2.4c1.5,0.8,2.6,1.7,3.4,2.5c1.3,1.3,2.1,2.5,2.7,4.1c0.6,1.6,1,3.5,1,5.9C416.1,250,415.4,254,413.8,258.5z"/>
</svg>
